# xmcd CD database file
#
# Track frame offsets:
#	187
#	22650
#	42637
#
# Disc length: 865 seconds
#
# Revision: 0
# Processed by: cddbd v1.5PL3 Copyright (c) Steve Scherf et al.
# Submitted via: CDex 1.50Beta6
#
DISCID=1a035f03
DTITLE=ends - シャララ
DYEAR=1997
DGENRE=JPop
TTITLE0=シャララ
TTITLE1=自由なこころ (Live 401)
TTITLE2=シャララ (Instrumental)
EXTD=YEAR: 1997
EXTT0=
EXTT1=
EXTT2=
PLAYORDER=
